<?xml version="1.0" encoding="utf-8"?>
<!-- Generator: Adobe Illustrator 17.0.0, SVG Export Plug-In . SVG Version: 6.00 Build 0)  -->
<!DOCTYPE svg PUBLIC "-//W3C//DTD SVG 1.1//EN" "http://www.w3.org/Graphics/SVG/1.1/DTD/svg11.dtd">
<svg version="1.1" id="Layer_1" xmlns="http://www.w3.org/2000/svg" xmlns:xlink="http://www.w3.org/1999/xlink" x="0px" y="0px"
	 width="144px" height="144px" viewBox="0 0 144 144" enable-background="new 0 0 144 144" xml:space="preserve">
<circle fill="none" stroke="#626262" stroke-width="4" stroke-miterlimit="10" cx="72" cy="61.377" r="54.5"/>
<g>
	<path fill="#626262" d="M72.648,66.371c-10.154,0-18.416-8.261-18.416-18.416s8.261-18.414,18.416-18.414
		s18.414,8.26,18.414,18.414S82.802,66.371,72.648,66.371z M72.648,32.2c-8.689,0-15.757,7.068-15.757,15.756
		c0,8.689,7.068,15.757,15.757,15.757c8.687,0,15.756-7.068,15.756-15.757C88.404,39.269,81.335,32.2,72.648,32.2z"/>
</g>
<g>
	<path fill="#626262" d="M81.375,71.694l-0.035,0.023c-0.351,0.199-3.492,1.898-8.881,1.746
		C74.954,73.393,77.942,72.913,81.375,71.694z"/>
</g>
<g>
	<path fill="#626262" d="M81.375,66.694v4.816c0,0-7.382,2.32-7.112,12.912v8.671l-1.804,2.121l-1.816-2.121v-8.671
		c0.281-10.592-7.1-12.912-7.1-12.912v-4.816c3.433,1.219,6.421,1.699,8.917,1.769c5.39,0.152,8.53-1.547,8.881-1.746L81.375,66.694
		z"/>
</g>
</svg>
