<?xml version="1.0" encoding="utf-8"?>
<!-- Generator: Adobe Illustrator 17.0.0, SVG Export Plug-In . SVG Version: 6.00 Build 0)  -->
<!DOCTYPE svg PUBLIC "-//W3C//DTD SVG 1.1//EN" "http://www.w3.org/Graphics/SVG/1.1/DTD/svg11.dtd">
<svg version="1.1" id="Layer_1" xmlns="http://www.w3.org/2000/svg" xmlns:xlink="http://www.w3.org/1999/xlink" x="0px" y="0px"
	 width="92px" height="80px" viewBox="0 0 92 80" enable-background="new 0 0 92 80" xml:space="preserve">
<g id="open">
	<rect x="16.702" y="14.293" display="none" stroke="#000000" stroke-miterlimit="10" width="12.596" height="1.889"/>
	<rect x="16.702" y="18.702" display="none" stroke="#000000" stroke-miterlimit="10" width="12.596" height="1.889"/>
	<rect x="16.702" y="23.111" display="none" stroke="#000000" stroke-miterlimit="10" width="12.596" height="1.889"/>
	<g>
		
			<rect x="20.065" y="17.341" transform="matrix(-0.7071 0.7071 -0.7071 -0.7071 61.7266 10.3048)" stroke="#000000" stroke-miterlimit="10" width="17.328" height="1.191"/>
		
			<rect x="8.607" y="17.341" transform="matrix(0.7071 0.7071 -0.7071 0.7071 17.7415 -6.9589)" stroke="#000000" stroke-miterlimit="10" width="17.328" height="1.191"/>
	</g>
</g>
<g id="open_1_">
	<g>
		
			<rect x="20.357" y="59.964" transform="matrix(-0.7071 0.7071 -0.7071 -0.7071 90.8503 83.3686)" fill="#FCFCFC" stroke="#FCFCFC" stroke-miterlimit="10" width="15.604" height="1.073"/>
		
			<rect x="10.039" y="59.964" transform="matrix(0.7071 0.7071 -0.7071 0.7071 48.0055 5.1045)" fill="#FCFCFC" stroke="#FCFCFC" stroke-miterlimit="10" width="15.604" height="1.073"/>
	</g>
</g>
<rect x="58.992" y="18.493" transform="matrix(-0.7071 -0.7071 0.7071 -0.7071 103.6358 82.9126)" display="none" width="19.996" height="3"/>
<rect x="58.995" y="18.511" transform="matrix(-0.7071 0.7071 -0.7071 -0.7071 131.9273 -14.6254)" display="none" width="19.996" height="3"/>
<rect x="58.995" y="58.487" transform="matrix(-0.7071 -0.7071 0.7071 -0.7071 75.3608 151.1888)" display="none" fill="#FFFFFF" width="19.996" height="3"/>
<rect x="58.989" y="58.505" transform="matrix(-0.7071 0.7071 -0.7071 -0.7071 160.1988 53.6521)" display="none" fill="#FFFFFF" width="19.997" height="3"/>
<rect x="61.372" y="-7.215" transform="matrix(-0.7071 0.7071 -0.7071 -0.7071 123.8184 -63.8268)" display="none" width="27.513" height="1.891"/>
<rect x="43.266" y="-7.215" transform="matrix(0.7071 0.7071 -0.7071 0.7071 12.2682 -42.1576)" display="none" width="27.513" height="1.891"/>
<rect x="58.586" y="17.622" transform="matrix(-0.7071 0.7071 -0.7071 -0.7071 129.567 -17.0849)" width="19.472" height="1.339"/>
<rect x="58.586" y="17.622" transform="matrix(0.7071 0.7071 -0.7071 0.7071 32.9453 -42.9534)" width="19.472" height="1.339"/>
<rect x="58.841" y="56.439" transform="matrix(-0.7071 0.7071 -0.7071 -0.7071 160.3807 48.0148)" fill="#FCFCFC" width="22.811" height="1.568"/>
<rect x="58.841" y="56.439" transform="matrix(0.7071 0.7071 -0.7071 0.7071 61.0376 -32.9112)" fill="#FCFCFC" width="22.811" height="1.568"/>
</svg>
