<?xml version="1.0" encoding="utf-8"?>
<!-- Generator: Adobe Illustrator 17.0.0, SVG Export Plug-In . SVG Version: 6.00 Build 0)  -->
<!DOCTYPE svg PUBLIC "-//W3C//DTD SVG 1.1//EN" "http://www.w3.org/Graphics/SVG/1.1/DTD/svg11.dtd">
<svg version="1.1" id="Layer_1" xmlns="http://www.w3.org/2000/svg" xmlns:xlink="http://www.w3.org/1999/xlink" x="0px" y="0px"
	 width="111.163px" height="81.96px" viewBox="-9.72 -5.061 111.163 81.96" enable-background="new -9.72 -5.061 111.163 81.96"
	 xml:space="preserve">
<path fill="none" d="M25.794,25.673c-0.234,0.242-0.485,0.473-0.742,0.697v5.341h8.722v-6.039L25.794,25.673L25.794,25.673z"/>
<rect id="_x3C_Slice_x3E__1_" x="30.419" y="35.738" fill="none" width="2.013" height="1.341"/>
<g>
	<g>
		<path fill="#FFFFFF" d="M69.728,54.962c0,0-0.002,0.003-0.003,0.005c-0.21,0.309-0.565,0.512-0.967,0.512h-5.096
			c-0.636,0-1.267-0.403-1.536-0.979L42.384,12.163L22.643,54.499c-0.268,0.577-0.9,0.979-1.536,0.979h-5.096
			c-0.398,0-0.749-0.198-0.961-0.503c0.023,0.048,0.05,0.095,0.079,0.141c-0.769-0.828-1.513-2.322-0.195-4.501
			c1.616-2.673,4.672,0.245,6.079,1.845l20.08-43.065l-4.492-9.633c-0.274-0.586-0.02-1.282,0.566-1.556
			c0.586-0.272,1.282-0.02,1.554,0.566l3.663,7.855l3.663-7.855c0.274-0.586,0.97-0.838,1.556-0.566
			c0.586,0.274,0.838,0.97,0.565,1.556l-4.492,9.633l20.065,43.029c1.435-1.612,4.422-4.401,6.014-1.769
			C70.975,52.673,70.427,54.104,69.728,54.962z"/>
	</g>
	<g>
		<circle fill="#FFFFFF" cx="42.592" cy="52.972" r="2.75"/>
	</g>
</g>
<text transform="matrix(1 0 0 1 43.7302 74.8484)" fill="#484848" font-family="'HelveticaNeue-Light'" font-size="13.1669" letter-spacing="1">GOLFER</text>
<text transform="matrix(1 0 0 1 -9.72 74.8484)" fill="#FFFFFF" font-family="'HelveticaNeue-Light'" font-size="13.1669" letter-spacing="1">SOCIAL</text>
</svg>
