<?xml version="1.0" encoding="utf-8"?>
<!-- Generator: Adobe Illustrator 17.0.0, SVG Export Plug-In . SVG Version: 6.00 Build 0)  -->
<!DOCTYPE svg PUBLIC "-//W3C//DTD SVG 1.1//EN" "http://www.w3.org/Graphics/SVG/1.1/DTD/svg11.dtd">
<svg version="1.1" id="Layer_1" xmlns="http://www.w3.org/2000/svg" xmlns:xlink="http://www.w3.org/1999/xlink" x="0px" y="0px"
	 width="144px" height="144px" viewBox="0 0 144 144" enable-background="new 0 0 144 144" xml:space="preserve">
<circle fill="none" stroke="#626262" stroke-width="4" stroke-miterlimit="10" cx="72" cy="61.377" r="54.5"/>
<g id="GsiEPz_2_">
	<g>
		<path fill="#6D6D6D" d="M85.871,41.655c-3.366-6.152-8.645-8.819-15.607-8.299c-7.107,0.53-13.26,6.748-13.759,13.848
			c-0.234,3.336,0.739,6.423,1.749,9.497c3.225,9.81,7.474,19.203,11.759,28.58c0.608,1.329,1.239,2.648,1.957,4.181
			c0.261-0.492,0.416-0.75,0.54-1.023c2.041-4.508,4.131-8.993,6.101-13.532c3.003-6.92,5.899-13.881,8.039-21.135
			C87.878,49.608,87.995,45.536,85.871,41.655z M71.98,54.271c-3.924,0.009-7.148-3.175-7.141-7.054
			c0.007-3.87,3.273-7.11,7.144-7.085c3.899,0.026,7.1,3.249,7.089,7.139C79.062,51.1,75.858,54.262,71.98,54.271z"/>
	</g>
</g>
<path fill="#626262" d="M60.985,64.339c2.725,7.097,5.867,14.024,9.028,20.941c0.608,1.329,1.239,2.648,1.957,4.181
	c0.261-0.492,0.416-0.75,0.54-1.023c2.041-4.508,4.131-8.993,6.101-13.532c2.701-6.224,5.316-12.482,7.371-18.956L60.985,64.339z"/>
</svg>
